HIERARCHY
ROOT Hips
{
	OFFSET 0.000000 88.474243 0.000000
	CHANNELS 6 Xposition Yposition Zposition Zrotation Yrotation Xrotation 
	JOINT Hips_Spine
	{
		OFFSET 0.000000 0.000000 0.000000
		CHANNELS 3 Zrotation Yrotation Xrotation
		JOINT Spine
		{
			OFFSET 0.005100 8.711998 -0.691000
			CHANNELS 3 Zrotation Yrotation Xrotation
			JOINT Spine1
			{
				OFFSET -0.009200 8.660301 -1.275000
				CHANNELS 3 Zrotation Yrotation Xrotation
				JOINT Spine2
				{
					OFFSET 0.006300 9.852501 -1.857000
					CHANNELS 3 Zrotation Yrotation Xrotation
					JOINT Spine2_Neck
					{
						OFFSET 0.000000 0.000000 0.000000
						CHANNELS 3 Zrotation Yrotation Xrotation
						JOINT Neck
						{
							OFFSET 0.016300 11.420799 -0.263300
							CHANNELS 3 Zrotation Yrotation Xrotation
							End Site #name: Head
							{
								OFFSET -0.019200 9.262405 2.362500
							}
						}
					}
					JOINT Spine2_LeftShoulder
					{
						OFFSET 0.000000 0.000000 0.000000
						CHANNELS 3 Zrotation Yrotation Xrotation
						JOINT LeftShoulder
						{
							OFFSET 5.616900 6.732201 -0.345700
							CHANNELS 3 Zrotation Yrotation Xrotation
							JOINT LeftArm
							{
								OFFSET 10.664888 -0.183372 -2.440700
								CHANNELS 3 Zrotation Yrotation Xrotation
								JOINT LeftForeArm
								{
									OFFSET 27.459126 0.000000 0.000000
									CHANNELS 3 Zrotation Yrotation Xrotation
									End Site #name: LeftHand
									{
										OFFSET 21.306858 0.000000 0.000000
									}
								}
							}
						}
					}
					JOINT Spine2_RightShoulder
					{
						OFFSET 0.000000 0.000000 0.000000
						CHANNELS 3 Zrotation Yrotation Xrotation
						JOINT RightShoulder
						{
							OFFSET -5.580300 6.737503 -0.344400
							CHANNELS 3 Zrotation Yrotation Xrotation
							JOINT RightArm
							{
								OFFSET -10.679335 -0.188484 -2.383900
								CHANNELS 3 Zrotation Yrotation Xrotation
								JOINT RightForeArm
								{
									OFFSET -27.503529 0.000000 0.000000
									CHANNELS 3 Zrotation Yrotation Xrotation
									End Site #name: RightHand
									{
										OFFSET -21.306808 0.000000 0.000000
									}
								}
							}
						}
					}
				}
			}
		}
	}
	JOINT Hips_LeftUpLeg
	{
		OFFSET 0.000000 0.000000 0.000000
		CHANNELS 3 Zrotation Yrotation Xrotation
		JOINT LeftUpLeg
		{
			OFFSET 6.857700 -6.739601 0.312100
			CHANNELS 3 Zrotation Yrotation Xrotation
			JOINT LeftLeg
			{
				OFFSET -0.367590 -34.731552 -4.572400
				CHANNELS 3 Zrotation Yrotation Xrotation
				End Site #name: LeftFoot
				{
					OFFSET 0.367590 -34.656704 -6.067400
				}
			}
		}
	}
	JOINT Hips_RightUpLeg
	{
		OFFSET 0.000000 0.000000 0.000000
		CHANNELS 3 Zrotation Yrotation Xrotation
		JOINT RightUpLeg
		{
			OFFSET -6.876100 -6.733299 0.301000
			CHANNELS 3 Zrotation Yrotation Xrotation
			JOINT RightLeg
			{
				OFFSET 0.347353 -34.795158 -4.515900
				CHANNELS 3 Zrotation Yrotation Xrotation
				End Site #name: RightFoot
				{
					OFFSET -0.347353 -34.589367 -6.070300
				}
			}
		}
	}
}
MOTION
Frames: 18
Frame Time: 0.041667
6.233545 -0.551953 3.393561 -0.849257 11.430932 -8.468407 -0.000000 0.000000 0.000000 2.546061 1.056654 4.845383 0.885258 0.489529 -0.168529 0.000000 0.000000 0.000000 0.704787 0.687908 0.445275 9.493721 -2.963272 19.820326 0.964014 0.538082 0.608102 -10.539323 -3.200113 0.975493 -75.504506 -46.215551 32.945775 -174.353352 -84.943463 174.685839 1.005430 0.723296 0.003139 24.430594 3.496055 0.787785 58.666374 24.734242 20.036134 -0.860134 82.138410 -1.154089 -0.000000 -0.000000 0.000000 -3.487061 10.234278 -5.476037 -0.156503 -7.047582 19.483805 -0.000000 -0.000000 -0.000000 -3.591107 -9.406294 -2.836045 -5.571216 10.143020 13.408315 
6.160153 -0.556632 3.315922 -0.938184 11.290776 -8.476371 -0.000000 0.000000 0.000000 2.508408 1.043814 4.898721 0.853533 0.480997 -0.099704 0.000000 0.000000 0.000000 0.684615 0.684322 0.495656 9.436570 -2.916648 19.902490 0.938344 0.531137 0.645706 -10.538216 -3.146317 0.957122 -74.973505 -44.834969 33.126395 -174.376279 -85.057423 174.691909 0.988260 0.724932 0.057731 24.200794 3.542110 0.859209 58.867948 24.839396 20.096913 -0.715195 81.569799 -1.013197 -0.000000 -0.000000 0.000000 -3.437973 10.254780 -5.723789 -0.056582 -7.175328 19.717877 -0.000000 -0.000000 -0.000000 -3.460707 -9.407143 -3.025839 -5.529560 10.117337 13.523706 
6.049216 -0.560550 3.230122 -1.059547 11.180263 -8.489965 -0.000000 0.000000 0.000000 2.455881 1.046729 4.945980 0.817892 0.468573 -0.017001 0.000000 0.000000 0.000000 0.660757 0.680040 0.557661 9.418430 -2.882465 20.005139 0.912596 0.524930 0.692527 -10.540274 -3.060472 0.931982 -74.358632 -43.514238 33.185915 -174.367482 -85.196723 174.664390 0.968754 0.722108 0.121812 23.953301 3.650199 0.939093 58.762690 24.985085 20.206969 -0.606661 80.929388 -0.915183 -0.000000 -0.000000 0.000000 -3.339984 10.293028 -6.003888 0.074786 -7.367563 19.973943 -0.000000 -0.000000 -0.000000 -3.267037 -9.425957 -3.239823 -5.495102 10.036217 13.684206 
5.903912 -0.563776 3.135573 -1.201551 11.095233 -8.506551 -0.000000 0.000000 0.000000 2.393878 1.073868 4.991342 0.778615 0.456412 0.066848 0.000000 0.000000 0.000000 0.635420 0.674358 0.621086 9.429006 -2.862848 20.158396 0.889882 0.520824 0.742724 -10.567375 -2.960000 0.903974 -73.714383 -42.364628 33.145524 -174.204648 -85.456499 174.488401 0.944911 0.720195 0.184237 23.755584 3.814419 1.052585 58.404640 25.157492 20.431683 -0.541949 80.327717 -0.867575 -0.000000 -0.000000 0.000000 -3.196848 10.331902 -6.306506 0.229240 -7.597340 20.232120 -0.000000 -0.000000 -0.000000 -3.017967 -9.454939 -3.490569 -5.467062 9.912671 13.908142 
5.727156 -0.566062 3.031446 -1.346825 11.033145 -8.523445 -0.000000 0.000000 0.000000 2.332991 1.127361 5.047175 0.738139 0.446818 0.145523 0.000000 0.000000 0.000000 0.610590 0.673733 0.682085 9.479253 -2.867840 20.395652 0.867386 0.521322 0.791247 -10.620634 -2.896303 0.885404 -73.083856 -41.426883 33.032592 -173.809288 -85.839975 174.082079 0.921618 0.718730 0.247279 23.613596 3.952944 1.180909 57.781420 25.301801 20.615940 -0.492014 79.887548 -0.836962 -0.000000 -0.000000 0.000000 -3.023342 10.365954 -6.630771 0.361640 -7.811360 20.500894 -0.000000 -0.000000 -0.000000 -2.726962 -9.491138 -3.770452 -5.388215 9.728847 14.195464 
5.518580 -0.567522 2.915973 -1.496345 10.972498 -8.537182 -0.000000 0.000000 0.000000 2.293023 1.197223 5.135573 0.701311 0.440373 0.219337 0.000000 0.000000 0.000000 0.589745 0.677360 0.740103 9.569717 -2.896402 20.735000 0.849276 0.526779 0.837632 -10.725346 -2.891388 0.880907 -72.430444 -40.813141 32.808123 -173.143428 -86.311901 173.407261 0.901423 0.718648 0.306661 23.517505 4.066388 1.311774 57.121099 25.433331 20.747848 -0.469616 79.601967 -0.826830 -0.000000 -0.000000 0.000000 -2.822163 10.373153 -6.985767 0.477066 -8.039395 20.764301 -0.000000 -0.000000 -0.000000 -2.392897 -9.533889 -4.097726 -5.333243 9.460587 14.540936 
5.278498 -0.568052 2.787404 -1.645796 10.903445 -8.536749 -0.000000 0.000000 0.000000 2.282884 1.257387 5.270361 0.670362 0.436815 0.287221 0.000000 0.000000 0.000000 0.572951 0.685942 0.794174 9.698923 -2.945999 21.173754 0.836188 0.535918 0.884231 -10.871203 -2.961374 0.898243 -71.797807 -40.475393 32.523785 -171.882931 -86.932540 172.142282 0.885129 0.721395 0.362255 23.448314 4.114900 1.383966 56.507381 25.463318 20.891962 -0.461374 79.392942 -0.822897 -0.000000 -0.000000 0.000000 -2.587491 10.337415 -7.383910 0.584459 -8.270639 20.999277 -0.000000 -0.000000 -0.000000 -2.013055 -9.574612 -4.485010 -5.322021 9.079913 14.946889 
5.007757 -0.567498 2.644555 -1.792928 10.824890 -8.513522 -0.000000 0.000000 0.000000 2.292702 1.306677 5.446113 0.654561 0.437992 0.349751 0.000000 0.000000 0.000000 0.557783 0.697076 0.843563 9.866429 -3.015557 21.705461 0.825546 0.547275 0.927203 -11.048224 -3.122121 0.938779 -71.184022 -40.411447 32.296877 -169.187627 -87.708634 169.442939 0.871070 0.723189 0.414008 23.370421 4.113652 1.423249 55.881616 25.355447 21.015767 -0.465284 79.315584 -0.821733 -0.000000 -0.000000 0.000000 -2.331266 10.262801 -7.882772 0.686416 -8.499561 21.218319 -0.000000 -0.000000 -0.000000 -1.610938 -9.668152 -4.927873 -5.367039 8.574185 15.404454 
4.707908 -0.565932 2.487072 -1.939768 10.846855 -8.461082 -0.000000 0.000000 0.000000 2.311848 1.349254 5.679823 0.643591 0.441973 0.409763 0.000000 0.000000 0.000000 0.539818 0.706885 0.892732 10.078340 -3.104875 22.301836 0.812664 0.558234 0.967127 -11.231103 -3.344449 0.995325 -70.678658 -40.681961 32.021837 -161.697305 -88.642425 161.952638 0.855132 0.723388 0.462542 23.287747 4.086287 1.439257 55.164150 25.025387 21.172584 -0.464359 79.241324 -0.813137 -0.000000 -0.000000 0.000000 -2.060108 10.137056 -8.474168 0.784467 -8.717336 21.423408 -0.000000 -0.000000 -0.000000 -1.170146 -9.795231 -5.439760 -5.477822 7.922454 15.934897 
4.379365 -0.564351 2.316411 -2.105217 11.042108 -8.342541 -0.000000 0.000000 0.000000 2.324638 1.395833 5.941142 0.627843 0.447358 0.465915 0.000000 0.000000 0.000000 0.516005 0.714712 0.938001 10.324664 -3.210415 22.948496 0.796261 0.568395 1.003575 -11.430550 -3.614623 1.066530 -70.258097 -41.252442 31.680891 -114.343780 -89.533437 114.600873 0.834089 0.720695 0.508385 23.204595 4.102563 1.444012 54.391753 24.481710 21.342136 -0.463467 79.289799 -0.806328 -0.000000 -0.000000 0.000000 -1.744850 9.918736 -9.181286 0.862632 -8.915664 21.636982 -0.000000 -0.000000 0.000000 -0.719538 -9.955871 -5.964569 -5.693729 7.015961 16.464404 
4.022964 -0.561354 2.134293 -2.270528 11.322462 -8.150747 -0.000000 0.000000 0.000000 2.309108 1.445522 6.223889 0.607168 0.453136 0.518953 0.000000 0.000000 0.000000 0.486686 0.719883 0.982304 10.592960 -3.326496 23.609576 0.775762 0.575347 1.039266 -11.652245 -3.907450 1.147187 -69.952324 -42.052409 31.397544 -23.666157 -88.932192 23.933250 0.807421 0.715589 0.553008 23.115967 4.184807 1.451872 54.029317 23.800684 21.434340 -0.456815 79.386930 -0.790566 -0.000000 -0.000000 0.000000 -1.364068 9.758869 -9.949112 0.901458 -9.091090 21.831456 -0.000000 -0.000000 0.000000 -0.266049 -10.129165 -6.481219 -6.073227 5.819922 16.959362 
3.639519 -0.555900 1.943003 -2.422184 11.596398 -7.955218 -0.000000 0.000000 0.000000 2.206026 1.463025 6.615451 0.583220 0.454837 0.576439 0.000000 0.000000 0.000000 0.454370 0.719332 1.027021 10.880010 -3.443791 24.228756 0.752586 0.575773 1.076254 -11.911467 -4.201074 1.230245 -69.691087 -43.040913 31.117698 -10.114965 -87.586444 10.386331 0.777016 0.705863 0.601029 22.968693 4.323588 1.460702 53.812946 22.916281 21.112064 -0.446088 79.529740 -0.776211 -0.000000 -0.000000 0.000000 -0.955718 9.810714 -10.731922 0.928352 -9.220893 21.984551 -0.000000 -0.000000 0.000000 0.194885 -10.294545 -6.988957 -6.628903 4.321853 17.438472 
3.228727 -0.549517 1.743131 -2.538722 11.765362 -7.771273 -0.000000 0.000000 0.000000 2.103765 1.475921 7.022952 0.559303 0.450757 0.636146 0.000000 0.000000 0.000000 0.421572 0.711200 1.073887 11.154059 -3.556024 24.816371 0.728427 0.568412 1.114253 -12.189690 -4.495366 1.313115 -69.538381 -44.082945 30.856676 -5.846613 -85.928704 6.118590 0.746584 0.688327 0.652222 22.728716 4.508345 1.478514 53.992458 22.175249 20.677624 -0.422511 79.815692 -0.741617 -0.000000 -0.000000 0.000000 -0.575401 9.754698 -11.465233 0.972827 -9.337248 22.091626 -0.000000 -0.000000 0.000000 0.670103 -10.420179 -7.505027 -7.285519 2.652876 17.907935 
2.795688 -0.546215 1.534816 -2.651475 11.866797 -7.549667 -0.000000 0.000000 0.000000 2.013286 1.477054 7.460823 0.539165 0.440591 0.700876 0.000000 0.000000 0.000000 0.391655 0.695601 1.120748 11.382156 -3.669629 25.335487 0.706349 0.551914 1.151328 -12.488851 -4.794672 1.399163 -69.422377 -45.147750 30.697243 -4.018585 -84.214380 4.289800 0.718189 0.663664 0.706229 22.394045 4.684719 1.494745 54.487994 21.659586 20.228278 -0.385434 80.157581 -0.697571 -0.000000 -0.000000 0.000000 -0.205715 9.638577 -12.171313 1.042994 -9.444204 22.144144 -0.000000 -0.000000 0.000000 1.158770 -10.531202 -8.112717 -8.043749 0.762100 18.429948 
2.346438 -0.550283 1.318521 -2.780417 11.908460 -7.294860 -0.000000 0.000000 0.000000 1.951287 1.475229 7.917535 0.523880 0.426103 0.772205 0.000000 0.000000 0.000000 0.367738 0.676234 1.170650 11.574616 -3.812361 25.696093 0.690106 0.528764 1.193134 -12.810951 -5.113199 1.490121 -69.311079 -46.266977 30.632426 -3.013890 -82.480846 3.285945 0.696437 0.637026 0.761863 21.974705 4.777573 1.490984 55.188945 21.334661 19.870955 -0.324912 80.444178 -0.625498 -0.000000 -0.000000 0.000000 0.179330 9.481686 -12.868420 1.128459 -9.557657 22.160547 -0.000000 -0.000000 0.000000 1.670278 -10.637535 -8.828384 -8.772691 -1.111205 19.038962 
1.882882 -0.563758 1.095296 -2.956743 11.857838 -7.023289 -0.000000 0.000000 0.000000 1.940614 1.480988 8.341709 0.515320 0.407492 0.854761 0.000000 0.000000 0.000000 0.349114 0.657107 1.227324 11.814461 -3.981800 25.981795 0.679065 0.505831 1.237096 -13.170905 -5.467472 1.591897 -69.175898 -47.513405 30.670553 -2.401991 -80.804416 2.678708 0.678575 0.608625 0.821988 21.494636 4.731446 1.465741 55.712072 21.097401 19.813467 -0.258541 80.578528 -0.546030 -0.000000 -0.000000 -0.000000 0.618098 9.260160 -13.581726 1.204982 -9.689274 22.172992 -0.000000 -0.000000 0.000000 2.217127 -10.693221 -9.654936 -9.071121 -2.456418 19.746258 
1.401450 -0.586198 0.869267 -3.203332 11.744308 -6.720221 -0.000000 0.000000 0.000000 1.964282 1.440942 8.795088 0.505990 0.390595 0.938734 0.000000 0.000000 0.000000 0.332297 0.638531 1.295568 12.120628 -4.182866 26.149638 0.670864 0.480990 1.287413 -13.575012 -5.836033 1.701277 -69.006887 -48.930853 30.794802 -1.981205 -79.188933 2.262498 0.662445 0.578019 0.890923 21.000352 4.487332 1.397806 56.273343 20.876643 20.184298 -0.198128 80.688844 -0.467295 -0.000000 -0.000000 -0.000000 1.132450 9.008182 -14.341857 1.223228 -9.861515 22.177766 -0.000000 -0.000000 0.000000 2.788353 -10.662775 -10.576855 -9.169337 -3.303397 20.567865 
0.905736 -0.617554 0.646838 -3.528774 11.700913 -6.340700 -0.000000 0.000000 0.000000 1.932570 1.290049 9.119818 0.490826 0.372445 1.044973 0.000000 0.000000 0.000000 0.312526 0.616961 1.376493 12.408904 -4.387441 26.223908 0.655393 0.462399 1.338987 -14.038469 -6.175088 1.808522 -68.795150 -50.503906 30.981583 -1.718256 -77.994015 2.004285 0.637398 0.546286 0.980047 20.530045 4.077852 1.297919 56.914970 20.729896 20.731784 -0.198394 80.938335 -0.472955 -0.000000 -0.000000 -0.000000 1.700157 8.681837 -15.189907 1.184905 -10.025797 22.153973 -0.000000 -0.000000 0.000000 3.430949 -10.550780 -11.594612 -9.075706 -3.835790 21.439178 
